<svg width="800" height="600" xmlns="http://www.w3.org/2000/svg">

 <g>
  <title>Layer 1</title>
  <path id="svg_4" d="m182.6,272.2" opacity="NaN" stroke="#111" fill="#bf220"/>
  <path id="svg_5" d="m303.27429,460.77148c-17.22878,-2.67513 -23.16978,-21.36314 -12.89804,-32.5593c13.6319,-17.31563 42.79184,-28.98855 65.63899,-18.06282c0.45529,-61.17587 0.19261,-122.3551 0.2622,-183.53248c56.96674,-9.67604 114.06229,-18.81192 171.04895,-28.40786c-0.12344,68.33981 -0.24683,136.67962 -0.37025,205.01942c-8.92805,20.67005 -37.77657,35.00348 -62.89631,28.59403c-14.95505,-3.84362 -18.54034,-20.41757 -10.21275,-30.57265c11.40382,-15.14823 32.62918,-25.54882 53.9675,-22.71139c6.08937,-0.52889 15.05642,7.93564 12.48263,-1.63991c-0.21138,-54.05382 0.52573,-108.12204 -0.5439,-162.16447c-9.29695,-2.96348 -25.83073,3.85486 -37.73442,4.4065c-39.80648,6.65168 -79.69807,12.95088 -119.41313,19.99138c1.19832,59.89352 0.63953,119.8237 0.46114,179.72989c2.10852,13.67493 -6.67,26.55651 -20.01782,33.68497c-11.51817,7.1936 -25.74882,9.78679 -39.77478,8.22474l-0.00001,-0.00003z" stroke="#111" fill="#bf0220"/>
 </g>
</svg>